<?xml version="1.0" encoding="UTF-8"?>
<svg id="Layer_2" data-name="Layer 2" xmlns="http://www.w3.org/2000/svg" viewBox="0 0 383.18 79.81">
  <defs>
    <style>
      .cls-1 {
        fill: #16a34a;
        stroke-width: 0px;
      }
    </style>
  </defs>
  <g id="Layer_1-2" data-name="Layer 1">
    <g>
      <path class="cls-1" d="M38.52,35.19h40.37v3.33c0,6.21-1.11,12.38-3.34,18.51-2.22,6.13-6.65,11.46-13.28,15.99-6.63,4.52-14.09,6.79-22.37,6.79-11.27,0-20.74-3.87-28.4-11.62C3.83,60.45,0,50.87,0,39.45S3.83,18.98,11.5,11.38C19.17,3.79,28.67,0,40.02,0s21.77,4.1,30.13,12.31l-7.25,6.78c-6.75-6.51-14.26-9.77-22.54-9.77s-15.6,2.84-21.27,8.51c-5.67,5.67-8.51,12.76-8.51,21.28,0,8.97,2.8,16.44,8.4,22.42,5.6,5.98,12.65,8.97,21.16,8.97,7.9,0,14.53-2.49,19.9-7.47,5.37-4.98,8.05-11.31,8.05-18.98h-29.56v-8.85Z"/>
      <path class="cls-1" d="M95.56,78.2h-9.2V25.99h9.2v9.2c3.6-6.9,9.28-10.35,17.02-10.35h3.45v8.66h-1.84c-6.44,0-11.16,1.69-14.15,5.08-2.99,3.39-4.49,8.7-4.49,15.94v23.68Z"/>
      <path class="cls-1" d="M144.09,24.96c7.44,0,13.8,2.68,19.09,8.05,5.29,5.37,7.94,11.85,7.94,19.44s-2.65,13.57-7.94,18.86-11.65,7.94-19.09,7.94-14.18-2.65-19.55-7.94c-5.37-5.29-8.05-11.77-8.05-19.43s2.68-13.68,8.05-18.97c5.37-5.29,11.88-7.94,19.55-7.94ZM144.09,34.04c-4.98,0-9.24,1.73-12.77,5.17-3.53,3.45-5.29,7.67-5.29,12.65s1.74,9.56,5.23,13.05c3.49,3.49,7.84,5.23,13.05,5.23,4.6,0,8.62-1.76,12.07-5.29,3.45-3.53,5.18-7.67,5.18-12.42,0-5.14-1.71-9.49-5.12-13.05-3.41-3.57-7.53-5.35-12.36-5.35Z"/>
      <path class="cls-1" d="M208.72,70.04v8.17h-6.79c-5.06,0-9.18-.58-12.36-1.72-3.18-1.15-6.69-3.72-10.52-7.71-3.83-3.99-5.75-9.58-5.75-16.79,0-3.76.88-7.49,2.64-11.21,1.76-3.72,4.54-7.11,8.34-10.18,3.79-3.07,9.41-4.6,16.85-4.6h7.59v8.05h-5.41c-6.29,0-11.27,1.65-14.95,4.95-3.68,3.3-5.52,7.74-5.52,13.34s1.8,9.85,5.41,13c3.6,3.14,8.55,4.71,14.83,4.71h5.63Z"/>
      <path class="cls-1" d="M259.78,54.05l6.44,3.57c-4.22,14.41-13.23,21.62-27.03,21.62-7.51,0-13.93-2.62-19.26-7.88-5.33-5.25-7.99-11.67-7.99-19.26s2.61-14.11,7.82-19.32c5.21-5.21,11.69-7.82,19.43-7.82,10.27,0,18.32,5.17,24.15,15.53l-33.47,21.85-3.91-6.79,25.42-17.01c-2.91-3.53-6.98-5.3-12.19-5.3s-9.28,1.72-12.65,5.17c-3.37,3.45-5.06,7.82-5.06,13.11s1.84,9.85,5.52,13.68c3.68,3.83,8.09,5.75,13.23,5.75,4.83,0,8.93-1.46,12.31-4.37,3.37-2.91,5.79-7.09,7.25-12.54Z"/>
      <path class="cls-1" d="M282.67,78.2h-9.2V25.99h9.2v9.2c3.6-6.9,9.28-10.35,17.02-10.35h3.45v8.66h-1.84c-6.44,0-11.16,1.69-14.15,5.08-2.99,3.39-4.48,8.7-4.48,15.94v23.68Z"/>
      <path class="cls-1" d="M314.98,4.03c1.84,0,3.41.65,4.71,1.96,1.3,1.3,1.96,2.88,1.96,4.71s-.65,3.53-1.96,4.83-2.88,1.96-4.71,1.96-3.53-.65-4.83-1.96c-1.3-1.3-1.96-2.91-1.96-4.83s.65-3.41,1.96-4.71,2.91-1.96,4.83-1.96ZM319.7,78.2h-9.2V25.88h9.2v52.33Z"/>
      <path class="cls-1" d="M383.18,78.2h-9.2v-22.88c0-6.44-1.63-11.6-4.89-15.47-3.26-3.87-7.65-5.81-13.17-5.81-4.98,0-9.2,1.76-12.65,5.29-3.45,3.53-5.17,7.82-5.17,12.88s1.72,9.32,5.17,12.77c3.45,3.45,7.74,5.17,12.88,5.17,4.6,0,9.28-2.11,14.03-6.33v9.78c-2.45,2.07-4.83,3.53-7.13,4.37-2.3.84-4.98,1.27-8.05,1.27-7.36,0-13.61-2.61-18.75-7.82-5.14-5.21-7.71-11.62-7.71-19.21s2.66-13.93,7.99-19.26c5.33-5.33,11.83-7.99,19.49-7.99s14.3,2.68,19.43,8.05c5.14,5.37,7.71,12.19,7.71,20.47v24.72Z"/>
    </g>
  </g>
</svg>